<svg width="1824" height="456" viewBox="0 0 1824 456" fill="none" xmlns="http://www.w3.org/2000/svg">
<g clip-path="url(#clip0_238_1292)">
<path d="M1647.53 -156.143C1647.53 -175.419 1652.98 -190.505 1663.87 -201.4C1675.61 -213.133 1691.11 -219 1710.39 -219H1760.67C1779.95 -219 1795.04 -213.133 1805.93 -201.4C1817.67 -190.505 1823.53 -175.419 1823.53 -156.143V598.142C1823.53 617.419 1817.67 632.925 1805.93 644.657C1795.04 655.553 1779.95 661 1760.67 661H1710.39C1691.11 661 1675.61 655.553 1663.87 644.657C1652.98 632.925 1647.53 617.419 1647.53 598.142V-156.143ZM1710.39 -168.714C1702.01 -168.714 1697.82 -164.524 1697.82 -156.143V598.142C1697.82 606.523 1702.01 610.714 1710.39 610.714H1760.67C1769.06 610.714 1773.25 606.523 1773.25 598.142V-156.143C1773.25 -164.524 1769.06 -168.714 1760.67 -168.714H1710.39Z" fill="#181818"/>
<path d="M1333.61 -219H1509.61V-168.714H1446.75V661H1396.47V-168.714H1333.61V-219Z" fill="#181818"/>
<path d="M1019.33 -105.857V-156.143C1019.33 -175.419 1024.78 -190.505 1035.67 -201.4C1047.41 -213.133 1062.91 -219 1082.19 -219H1132.47C1151.75 -219 1166.84 -213.133 1177.73 -201.4C1189.47 -190.505 1195.33 -175.419 1195.33 -156.143V-131H1145.05V-156.143C1145.05 -164.524 1140.85 -168.714 1132.47 -168.714H1082.19C1073.81 -168.714 1069.62 -164.524 1069.62 -156.143V-105.857C1069.62 -97.4762 1073.81 -92.0285 1082.19 -89.5142L1147.56 -69.4C1161.81 -65.2095 1173.12 -57.2475 1181.5 -45.5141C1190.72 -33.7814 1195.33 -20.3711 1195.33 -5.28489V598.142C1195.33 617.419 1189.47 632.925 1177.73 644.657C1166.84 655.553 1151.75 661 1132.47 661H1082.19C1062.91 661 1047.41 655.553 1035.67 644.657C1024.78 632.925 1019.33 617.419 1019.33 598.142V572.999H1069.62V598.142C1069.62 606.523 1073.81 610.714 1082.19 610.714H1132.47C1140.85 610.714 1145.05 606.523 1145.05 598.142V-5.28489C1145.05 -13.6659 1140.85 -19.1146 1132.47 -21.6293L1067.1 -41.743C1052.85 -45.9335 1041.12 -53.8951 1031.9 -65.6285C1023.52 -77.3618 1019.33 -90.7714 1019.33 -105.857Z" fill="#181818"/>
<path d="M704.699 -156.143C704.699 -175.419 710.146 -190.505 721.042 -201.4C732.774 -213.133 748.28 -219 767.555 -219H817.841C837.118 -219 852.204 -213.133 863.098 -201.4C874.832 -190.505 880.699 -175.419 880.699 -156.143V598.142C880.699 617.419 874.832 632.925 863.098 644.657C852.204 655.553 837.118 661 817.841 661H767.555C748.28 661 732.774 655.553 721.042 644.657C710.146 632.925 704.699 617.419 704.699 598.142V-156.143ZM767.555 -168.714C759.174 -168.714 754.983 -164.524 754.983 -156.143V598.142C754.983 606.523 759.174 610.714 767.555 610.714H817.841C826.222 610.714 830.413 606.523 830.413 598.142V-156.143C830.413 -164.524 826.222 -168.714 817.841 -168.714H767.555Z" fill="#181818"/>
<path d="M352.316 -219H465.458C484.735 -219 499.821 -213.133 510.717 -201.4C522.449 -190.505 528.316 -175.419 528.316 -156.143V472.429C528.316 491.706 522.449 507.21 510.717 518.942C499.821 529.838 484.735 535.287 465.458 535.287L528.316 661H471.744L408.888 535.287H402.602V661H352.316V-219ZM465.458 485.001C473.839 485.001 478.03 480.81 478.03 472.429V-156.143C478.03 -164.524 473.839 -168.714 465.458 -168.714H402.602V485.001H465.458Z" fill="#181818"/>
<path d="M0 -219H113.143C132.419 -219 147.505 -213.133 158.4 -201.4C170.133 -190.505 176 -175.419 176 -156.143V472.429C176 491.706 170.133 507.21 158.4 518.942C147.505 529.838 132.419 535.287 113.143 535.287H50.2857V661H0V-219ZM113.143 485.001C121.524 485.001 125.714 480.81 125.714 472.429V-156.143C125.714 -164.524 121.524 -168.714 113.143 -168.714H50.2857V485.001H113.143Z" fill="#181818"/>
</g>
<defs>
<clipPath id="clip0_238_1292">
<rect width="1824" height="456" fill="white"/>
</clipPath>
</defs>
</svg>
