<svg width="1824" height="880" viewBox="0 0 1824 880" fill="none" xmlns="http://www.w3.org/2000/svg">
<path d="M1647.53 62.8571C1647.53 43.581 1652.98 28.4953 1663.87 17.6C1675.61 5.86667 1691.11 0 1710.39 0H1760.67C1779.95 0 1795.04 5.86667 1805.93 17.6C1817.67 28.4953 1823.53 43.581 1823.53 62.8571V817.142C1823.53 836.419 1817.67 851.925 1805.93 863.657C1795.04 874.553 1779.95 880 1760.67 880H1710.39C1691.11 880 1675.61 874.553 1663.87 863.657C1652.98 851.925 1647.53 836.419 1647.53 817.142V62.8571ZM1710.39 50.2858C1702.01 50.2858 1697.82 54.4763 1697.82 62.8571V817.142C1697.82 825.523 1702.01 829.714 1710.39 829.714H1760.67C1769.06 829.714 1773.25 825.523 1773.25 817.142V62.8571C1773.25 54.4763 1769.06 50.2858 1760.67 50.2858H1710.39Z" fill="#181818"/>
<path d="M1333.61 0H1509.61V50.2858H1446.75V880H1396.47V50.2858H1333.61V0Z" fill="#181818"/>
<path d="M1019.33 113.143V62.8571C1019.33 43.581 1024.78 28.4953 1035.67 17.6C1047.41 5.86667 1062.91 0 1082.19 0H1132.47C1151.75 0 1166.84 5.86667 1177.73 17.6C1189.47 28.4953 1195.33 43.581 1195.33 62.8571V88H1145.05V62.8571C1145.05 54.4763 1140.85 50.2858 1132.47 50.2858H1082.19C1073.81 50.2858 1069.62 54.4763 1069.62 62.8571V113.143C1069.62 121.524 1073.81 126.971 1082.19 129.486L1147.56 149.6C1161.81 153.791 1173.12 161.752 1181.5 173.486C1190.72 185.219 1195.33 198.629 1195.33 213.715V817.142C1195.33 836.419 1189.47 851.925 1177.73 863.657C1166.84 874.553 1151.75 880 1132.47 880H1082.19C1062.91 880 1047.41 874.553 1035.67 863.657C1024.78 851.925 1019.33 836.419 1019.33 817.142V791.999H1069.62V817.142C1069.62 825.523 1073.81 829.714 1082.19 829.714H1132.47C1140.85 829.714 1145.05 825.523 1145.05 817.142V213.715C1145.05 205.334 1140.85 199.885 1132.47 197.371L1067.1 177.257C1052.85 173.066 1041.12 165.105 1031.9 153.371C1023.52 141.638 1019.33 128.229 1019.33 113.143Z" fill="#181818"/>
<path d="M704.699 62.8571C704.699 43.581 710.146 28.4953 721.042 17.6C732.774 5.86667 748.28 0 767.555 0H817.841C837.118 0 852.204 5.86667 863.098 17.6C874.832 28.4953 880.699 43.581 880.699 62.8571V817.142C880.699 836.419 874.832 851.925 863.098 863.657C852.204 874.553 837.118 880 817.841 880H767.555C748.28 880 732.774 874.553 721.042 863.657C710.146 851.925 704.699 836.419 704.699 817.142V62.8571ZM767.555 50.2858C759.174 50.2858 754.983 54.4763 754.983 62.8571V817.142C754.983 825.523 759.174 829.714 767.555 829.714H817.841C826.222 829.714 830.413 825.523 830.413 817.142V62.8571C830.413 54.4763 826.222 50.2858 817.841 50.2858H767.555Z" fill="#181818"/>
<path d="M352.316 0H465.458C484.735 0 499.821 5.86667 510.717 17.6C522.449 28.4953 528.316 43.581 528.316 62.8571V691.429C528.316 710.706 522.449 726.21 510.717 737.942C499.821 748.838 484.735 754.287 465.458 754.287L528.316 880H471.744L408.888 754.287H402.602V880H352.316V0ZM465.458 704.001C473.839 704.001 478.03 699.81 478.03 691.429V62.8571C478.03 54.4763 473.839 50.2858 465.458 50.2858H402.602V704.001H465.458Z" fill="#181818"/>
<path d="M0 0H113.143C132.419 0 147.505 5.86667 158.4 17.6C170.133 28.4953 176 43.581 176 62.8571V691.429C176 710.706 170.133 726.21 158.4 737.942C147.505 748.838 132.419 754.287 113.143 754.287H50.2857V880H0V0ZM113.143 704.001C121.524 704.001 125.714 699.81 125.714 691.429V62.8571C125.714 54.4763 121.524 50.2858 113.143 50.2858H50.2857V704.001H113.143Z" fill="#181818"/>
</svg>
