<svg width="1824" height="205" viewBox="0 0 1824 205" fill="none" xmlns="http://www.w3.org/2000/svg">
<g clip-path="url(#clip0_238_1285)">
<path d="M1647.53 -612.143C1647.53 -631.419 1652.98 -646.505 1663.87 -657.4C1675.61 -669.133 1691.11 -675 1710.39 -675H1760.67C1779.95 -675 1795.04 -669.133 1805.93 -657.4C1817.67 -646.505 1823.53 -631.419 1823.53 -612.143V142.142C1823.53 161.419 1817.67 176.925 1805.93 188.657C1795.04 199.553 1779.95 205 1760.67 205H1710.39C1691.11 205 1675.61 199.553 1663.87 188.657C1652.98 176.925 1647.53 161.419 1647.53 142.142V-612.143ZM1710.39 -624.714C1702.01 -624.714 1697.82 -620.524 1697.82 -612.143V142.142C1697.82 150.523 1702.01 154.714 1710.39 154.714H1760.67C1769.06 154.714 1773.25 150.523 1773.25 142.142V-612.143C1773.25 -620.524 1769.06 -624.714 1760.67 -624.714H1710.39Z" fill="#181818"/>
<path d="M1333.61 -675H1509.61V-624.714H1446.75V205H1396.47V-624.714H1333.61V-675Z" fill="#181818"/>
<path d="M1019.33 -561.857V-612.143C1019.33 -631.419 1024.78 -646.505 1035.67 -657.4C1047.41 -669.133 1062.91 -675 1082.19 -675H1132.47C1151.75 -675 1166.84 -669.133 1177.73 -657.4C1189.47 -646.505 1195.33 -631.419 1195.33 -612.143V-587H1145.05V-612.143C1145.05 -620.524 1140.85 -624.714 1132.47 -624.714H1082.19C1073.81 -624.714 1069.62 -620.524 1069.62 -612.143V-561.857C1069.62 -553.476 1073.81 -548.029 1082.19 -545.514L1147.56 -525.4C1161.81 -521.209 1173.12 -513.248 1181.5 -501.514C1190.72 -489.781 1195.33 -476.371 1195.33 -461.285V142.142C1195.33 161.419 1189.47 176.925 1177.73 188.657C1166.84 199.553 1151.75 205 1132.47 205H1082.19C1062.91 205 1047.41 199.553 1035.67 188.657C1024.78 176.925 1019.33 161.419 1019.33 142.142V116.999H1069.62V142.142C1069.62 150.523 1073.81 154.714 1082.19 154.714H1132.47C1140.85 154.714 1145.05 150.523 1145.05 142.142V-461.285C1145.05 -469.666 1140.85 -475.115 1132.47 -477.629L1067.1 -497.743C1052.85 -501.934 1041.12 -509.895 1031.9 -521.629C1023.52 -533.362 1019.33 -546.771 1019.33 -561.857Z" fill="#181818"/>
<path d="M704.699 -612.143C704.699 -631.419 710.146 -646.505 721.042 -657.4C732.774 -669.133 748.28 -675 767.555 -675H817.841C837.118 -675 852.204 -669.133 863.098 -657.4C874.832 -646.505 880.699 -631.419 880.699 -612.143V142.142C880.699 161.419 874.832 176.925 863.098 188.657C852.204 199.553 837.118 205 817.841 205H767.555C748.28 205 732.774 199.553 721.042 188.657C710.146 176.925 704.699 161.419 704.699 142.142V-612.143ZM767.555 -624.714C759.174 -624.714 754.983 -620.524 754.983 -612.143V142.142C754.983 150.523 759.174 154.714 767.555 154.714H817.841C826.222 154.714 830.413 150.523 830.413 142.142V-612.143C830.413 -620.524 826.222 -624.714 817.841 -624.714H767.555Z" fill="#181818"/>
<path d="M352.316 -675H465.458C484.735 -675 499.821 -669.133 510.717 -657.4C522.449 -646.505 528.316 -631.419 528.316 -612.143V16.4291C528.316 35.7057 522.449 51.2095 510.717 62.9422C499.821 73.8379 484.735 79.2867 465.458 79.2867L528.316 205H471.744L408.888 79.2867H402.602V205H352.316V-675ZM465.458 29.0006C473.839 29.0006 478.03 24.8101 478.03 16.4291V-612.143C478.03 -620.524 473.839 -624.714 465.458 -624.714H402.602V29.0006H465.458Z" fill="#181818"/>
<path d="M0 -675H113.143C132.419 -675 147.505 -669.133 158.4 -657.4C170.133 -646.505 176 -631.419 176 -612.143V16.4291C176 35.7057 170.133 51.2095 158.4 62.9422C147.505 73.8379 132.419 79.2867 113.143 79.2867H50.2857V205H0V-675ZM113.143 29.0006C121.524 29.0006 125.714 24.8101 125.714 16.4291V-612.143C125.714 -620.524 121.524 -624.714 113.143 -624.714H50.2857V29.0006H113.143Z" fill="#181818"/>
</g>
<defs>
<clipPath id="clip0_238_1285">
<rect width="1824" height="205" fill="white"/>
</clipPath>
</defs>
</svg>
