<svg width="146" height="49" viewBox="0 0 146 49" fill="none" xmlns="http://www.w3.org/2000/svg">
<path d="M74.9922 2.85714C74.9922 1.98095 75.2402 1.29524 75.736 0.800001C76.2701 0.266667 76.9758 0 77.8532 0H80.1421C81.0195 0 81.706 0.266667 82.202 0.800001C82.7361 1.29524 83.0029 1.98095 83.0029 2.85714V37.1428C83.0029 38.0191 82.7361 38.7239 82.202 39.2572C81.706 39.7524 81.0195 40 80.1421 40H77.8532C76.9758 40 76.2701 39.7524 75.736 39.2572C75.2402 38.7239 74.9922 38.0191 74.9922 37.1428V2.85714ZM77.8532 2.28572C77.4718 2.28572 77.281 2.47619 77.281 2.85714V37.1428C77.281 37.5238 77.4718 37.7143 77.8532 37.7143H80.1421C80.5235 37.7143 80.7143 37.5238 80.7143 37.1428V2.85714C80.7143 2.47619 80.5235 2.28572 80.1421 2.28572H77.8532Z" fill="#181818"/>
<path d="M60.7031 0H68.714V2.28572H65.853V40H63.5642V2.28572H60.7031V0Z" fill="#181818"/>
<path d="M46.3984 5.14286V2.85714C46.3984 1.98095 46.6464 1.29524 47.1423 0.800001C47.6763 0.266667 48.3821 0 49.2594 0H51.5482C52.4256 0 53.1123 0.266667 53.6081 0.800001C54.1422 1.29524 54.4093 1.98095 54.4093 2.85714V4H52.1204V2.85714C52.1204 2.47619 51.9297 2.28572 51.5482 2.28572H49.2594C48.8779 2.28572 48.6872 2.47619 48.6872 2.85714V5.14286C48.6872 5.52381 48.8779 5.77143 49.2594 5.88572L52.2349 6.8C52.8834 6.99048 53.3984 7.35239 53.7799 7.88572C54.1994 8.41903 54.4093 9.02859 54.4093 9.71432V37.1428C54.4093 38.0191 54.1422 38.7239 53.6081 39.2572C53.1123 39.7524 52.4256 40 51.5482 40H49.2594C48.3821 40 47.6763 39.7524 47.1423 39.2572C46.6464 38.7239 46.3984 38.0191 46.3984 37.1428V36H48.6872V37.1428C48.6872 37.5238 48.8779 37.7143 49.2594 37.7143H51.5482C51.9297 37.7143 52.1204 37.5238 52.1204 37.1428V9.71432C52.1204 9.33337 51.9297 9.0857 51.5482 8.9714L48.5728 8.05714C47.9242 7.86666 47.3902 7.50477 46.9706 6.97143C46.5892 6.4381 46.3984 5.82857 46.3984 5.14286Z" fill="#181818"/>
<path d="M32.0781 2.85714C32.0781 1.98095 32.326 1.29524 32.822 0.800001C33.356 0.266667 34.0618 0 34.9391 0H37.2279C38.1053 0 38.792 0.266667 39.2878 0.800001C39.8219 1.29524 40.0889 1.98095 40.0889 2.85714V37.1428C40.0889 38.0191 39.8219 38.7239 39.2878 39.2572C38.792 39.7524 38.1053 40 37.2279 40H34.9391C34.0618 40 33.356 39.7524 32.822 39.2572C32.326 38.7239 32.0781 38.0191 32.0781 37.1428V2.85714ZM34.9391 2.28572C34.5576 2.28572 34.3669 2.47619 34.3669 2.85714V37.1428C34.3669 37.5238 34.5576 37.7143 34.9391 37.7143H37.2279C37.6094 37.7143 37.8001 37.5238 37.8001 37.1428V2.85714C37.8001 2.47619 37.6094 2.28572 37.2279 2.28572H34.9391Z" fill="#181818"/>
<path d="M16.0391 0H21.1888C22.0662 0 22.7529 0.266667 23.2488 0.800001C23.7829 1.29524 24.0499 1.98095 24.0499 2.85714V31.4286C24.0499 32.3048 23.7829 33.0095 23.2488 33.5428C22.7529 34.0381 22.0662 34.2858 21.1888 34.2858L24.0499 40H21.4749L18.614 34.2858H18.3279V40H16.0391V0ZM21.1888 32C21.5703 32 21.7611 31.8095 21.7611 31.4286V2.85714C21.7611 2.47619 21.5703 2.28572 21.1888 2.28572H18.3279V32H21.1888Z" fill="#181818"/>
<path d="M0 0H5.14983C6.02721 0 6.71386 0.266667 7.20976 0.800001C7.74383 1.29524 8.01085 1.98095 8.01085 2.85714V31.4286C8.01085 32.3048 7.74383 33.0095 7.20976 33.5428C6.71386 34.0381 6.02721 34.2858 5.14983 34.2858H2.28881V40H0V0ZM5.14983 32C5.53131 32 5.72203 31.8095 5.72203 31.4286V2.85714C5.72203 2.47619 5.53131 2.28572 5.14983 2.28572H2.28881V32H5.14983Z" fill="#181818"/>
<path d="M137.668 40.1431C136.358 40.1431 135.336 39.7065 134.6 38.8333C133.888 37.96 133.532 36.7536 133.532 35.2139C133.509 33.2147 134.198 31.0661 135.6 28.7681C137.025 26.4701 138.427 25.4245 139.805 25.6313C141.299 25.3326 142.586 25.6543 143.666 26.5965C144.769 27.5387 145.32 29.0439 145.32 31.112C145.32 33.5479 144.539 35.6621 142.977 37.4545C141.437 39.2469 139.667 40.1431 137.668 40.1431ZM139.53 27.3548C138.358 27.8604 137.335 28.9404 136.462 30.595C135.612 32.2495 135.186 33.8466 135.186 35.3863C135.186 36.4204 135.405 37.2247 135.841 37.7992C136.301 38.3507 136.933 38.6265 137.737 38.6265C139.231 38.6265 140.598 37.8681 141.839 36.3515C143.08 34.8348 143.7 33.0883 143.7 31.112C143.677 29.8482 143.413 28.86 142.908 28.1476C142.402 27.4353 141.759 27.0791 140.977 27.0791C140.702 27.0791 140.437 27.1021 140.184 27.148C139.955 27.194 139.736 27.2629 139.53 27.3548Z" fill="#FF2626"/>
<path d="M121.386 38.3866L121.282 38.2832C120.662 40.4663 120.202 42.2242 119.904 43.5571C119.605 44.9129 119.456 45.9125 119.456 46.5559C119.456 46.6479 119.467 46.7972 119.49 47.004C119.536 47.2109 119.57 47.3717 119.593 47.4866C119.593 47.8313 119.479 48.1186 119.249 48.3484C119.042 48.6011 118.789 48.7275 118.49 48.7275C118.169 48.7275 117.916 48.6126 117.732 48.3828C117.525 48.153 117.422 47.8543 117.422 47.4866C117.422 46.7972 117.812 45.0048 118.594 42.1093C119.352 39.2139 120.099 36.5827 120.834 34.2158C122.167 29.9415 123.006 27.4482 123.351 26.7358C123.718 26.0005 124.132 25.6328 124.592 25.6328C124.844 25.6328 125.04 25.7132 125.178 25.8741C125.338 26.0119 125.419 26.2188 125.419 26.4945C125.419 26.7473 125.258 27.1495 124.936 27.701C124.637 28.2295 124.419 28.758 124.281 29.2866C125.109 28.2755 125.913 27.4941 126.694 26.9426C127.476 26.3911 128.199 26.1039 128.866 26.0809C129.693 26.0809 130.405 26.529 131.003 27.4252C131.6 28.2984 131.899 29.5164 131.899 31.079C131.899 33.5149 131.256 35.6865 129.969 37.5938C128.682 39.4781 127.223 40.4203 125.591 40.4203C125.04 40.4203 124.362 40.2365 123.557 39.8688C122.776 39.5241 122.052 39.03 121.386 38.3866ZM128.556 27.5631C127.981 27.5631 127.269 27.9997 126.418 28.8729C125.568 29.7232 124.695 30.9067 123.799 32.4233C123.385 33.1357 123.006 33.8366 122.661 34.526C122.34 35.1924 122.041 35.8933 121.765 36.6286C122.248 37.2261 122.903 37.7547 123.73 38.2143C124.557 38.6738 125.246 38.9036 125.798 38.9036C126.855 38.9036 127.866 38.1798 128.831 36.732C129.796 35.2843 130.279 33.5149 130.279 31.4237C130.279 30.2747 130.095 29.344 129.728 28.6317C129.383 27.9193 128.992 27.5631 128.556 27.5631Z" fill="#FF2626"/>
<path d="M106.537 31.1131L107.571 30.1824C108.353 28.4589 108.95 27.3443 109.364 26.8387C109.778 26.3332 110.214 26.2758 110.674 26.6665C111.087 26.2299 111.558 25.8851 112.087 25.6323C112.639 25.3565 113.179 25.2188 113.707 25.2188C114.626 25.2188 115.465 25.4945 116.223 26.046C116.982 26.5976 117.556 27.3558 117.947 28.3209C118.269 29.2401 118.395 30.2857 118.326 31.4577C118.257 32.6067 118.039 33.6639 117.671 34.629C117.257 35.6631 116.671 36.6168 115.913 37.49C115.178 38.3632 114.339 39.0182 113.397 39.4548C111.972 40.1212 110.639 40.236 109.398 39.7994C108.18 39.3857 107.353 38.5125 106.917 37.1797C106.687 36.5592 106.572 35.8239 106.572 34.9736C106.572 34.1004 106.698 33.2617 106.951 32.4574C106.445 32.917 105.928 33.434 105.4 34.0085C104.871 34.5829 104.469 35.0655 104.193 35.4562C104.102 35.5941 103.998 35.7435 103.883 35.9044C103.791 36.0423 103.32 36.9154 102.47 38.524C102.171 39.0755 101.838 39.3973 101.47 39.4892C101.126 39.5812 100.861 39.5121 100.678 39.2823C100.494 39.0985 100.459 38.6619 100.574 37.9725C100.712 37.2831 101.08 36.1457 101.677 34.5601C102.895 31.274 103.504 29.6194 103.504 29.5964C103.504 29.5734 103.516 29.5275 103.539 29.4585C103.584 28.7002 103.688 28.206 103.849 27.9762C104.033 27.7235 104.308 27.4937 104.676 27.2868C105.251 26.9651 105.607 26.9767 105.745 27.3214C105.905 27.6661 105.859 28.1371 105.607 28.7346C105.354 29.3091 105.067 30.01 104.745 30.8372C104.423 31.6645 104.228 32.1931 104.159 32.4229L103.642 34.2153C103.987 33.7327 104.331 33.2961 104.676 32.9054C105.044 32.4918 105.664 31.8944 106.537 31.1131ZM113.879 26.7699C113.259 26.7699 112.639 26.9652 112.018 27.3559C111.398 27.7465 110.812 28.3324 110.26 29.1137C109.111 30.6994 108.422 32.3424 108.192 34.0429C107.962 35.7205 108.203 36.9729 108.916 37.8001C109.352 38.3516 109.904 38.685 110.57 38.7999C111.237 38.8918 111.938 38.7538 112.673 38.3861C113.431 38.0184 114.144 37.3865 114.81 36.4903C115.477 35.5941 115.971 34.6979 116.292 33.8017C116.706 32.5838 116.832 31.3428 116.671 30.0789C116.534 28.815 116.108 27.8959 115.396 27.3214C115.166 27.1606 114.914 27.0341 114.638 26.9422C114.385 26.8273 114.132 26.7699 113.879 26.7699Z" fill="#FF2626"/>
<path d="M89.0007 35.5577C88.9777 33.4665 89.5407 31.6511 90.6897 30.1114C91.8617 28.5718 93.1026 27.802 94.4124 27.802C95.2397 27.802 95.9751 28.1007 96.6185 28.6982C97.2619 29.2957 97.5837 30.0425 97.5837 30.9387C97.5837 31.2375 97.5377 31.4558 97.4458 31.5936C97.3539 31.7315 97.193 31.8005 96.9632 31.8005C96.9402 31.8005 96.9402 31.812 96.9632 31.8349C96.9862 31.8349 96.7334 31.2949 96.2049 30.2149C96.067 29.9161 95.8946 29.6978 95.6878 29.5599C95.481 29.3991 95.2282 29.3186 94.9295 29.3186C93.7345 29.3416 92.6889 30.0195 91.7927 31.3524C90.8965 32.6852 90.4484 34.087 90.4484 35.5577C90.4484 36.5228 90.6322 37.2812 90.9999 37.8327C91.3676 38.3842 91.8617 38.66 92.4821 38.66C93.746 38.66 95.0099 37.7637 96.2738 35.9713C97.5607 34.1789 98.2041 32.329 98.2041 30.4217C98.2041 29.4335 98.0203 28.5258 97.6526 27.6986C97.2849 26.8713 96.7449 26.1244 96.0325 25.458C94.332 23.8265 93.4128 22.8728 93.2749 22.597C93.16 22.2983 93.1026 21.9996 93.1026 21.7008C93.1026 20.8276 93.7001 20.0233 94.895 19.2879C96.1129 18.5526 97.9054 17.8977 100.272 17.3232C101.743 16.9785 102.823 16.9095 103.512 17.1163C104.225 17.3002 104.581 17.7483 104.581 18.4607C104.581 18.6905 104.569 18.8513 104.546 18.9432C104.524 19.0122 104.489 19.0467 104.443 19.0467C104.305 19.0696 104.167 19.0237 104.029 18.9088C103.892 18.7709 103.593 18.702 103.133 18.702C101.64 18.702 99.8472 19.0467 97.756 19.736C95.6878 20.4254 94.6537 21.1033 94.6537 21.7698C94.6537 22.0225 94.7341 22.2868 94.895 22.5626C95.0788 22.8153 95.5729 23.2864 96.3772 23.9758C97.5262 24.918 98.365 25.9291 98.8935 27.0092C99.445 28.0662 99.7208 29.2957 99.7208 30.6974C99.7208 32.9495 98.928 35.0521 97.3424 37.0054C95.7797 38.9357 94.0677 39.9124 92.2064 39.9353C91.2872 39.9353 90.5173 39.5447 89.8969 38.7634C89.2994 37.982 89.0007 36.9135 89.0007 35.5577Z" fill="#FF2626"/>
</svg>
